 <svg viewBox="0 0 357 187" xmlns="http://www.w3.org/2000/svg"  width="24" role="presentation" alt="" data-testid="MyNintendoStoreStackedLogoIcon" name="my-nintendo-store-stacked-logo" color="white" size="24"><g fill="white" fill-rule="evenodd">
            <path d="M165.725 31.764a5.669 5.669 0 0 0-5.559-3.952 5.523 5.523 0 0 0-5.426 3.952h10.985zm5.921 1.788c0 2.117-1.395 2.676-4.158 2.676H154.65a5.591 5.591 0 0 0 5.424 4.337 6.143 6.143 0 0 0 5.191-2.514l5.164 1.865a11.49 11.49 0 0 1-10.3 6.127c-6.503 0-11.44-5.819-11.44-11.897 0-5.886 4.826-11.826 11.38-11.826 7.549 0 11.485 6.597 11.58 11.232h-.003zm14.346-11.226a7.358 7.358 0 0 0-5.778 2.59h-.067v-1.9h-6.327v22.332h6.327V34.474c0-4.34 2.298-6.21 4.91-6.21 1.811 0 4.569 1.178 4.569 5.569v11.504h6.33V33.36c0-7.511-5.057-11.034-9.964-11.034zm-42.094-5.47h-6.313v6.156h-4.224v5.265h4.226v17.068h6.313V28.277h4.278v-5.265H143.9v-6.156h-.002zM230 34.24a5.737 5.737 0 1 0 11.473-.001A5.737 5.737 0 0 0 230 34.24zm5.457 11.5c-6.386-.09-11.502-5.315-11.457-11.701.046-6.386 5.236-11.539 11.622-11.537 6.483.07 11.683 5.38 11.615 11.864-.134 6.384-5.395 11.464-11.78 11.375zm15.687-1.336l-.487-1.711h-.887v2.66h.609l-.022-1.992.562 1.992h.438l.56-1.992-.022 1.992h.611v-2.66h-.892l-.47 1.714v-.003zm-35.595-10.225a5.803 5.803 0 0 0-5.759-6.046 6.048 6.048 0 0 0 0 12.089 5.804 5.804 0 0 0 5.76-6.043h-.001zm-.035-20.267h6.332v31.441h-6.332v-1.649h-.108a7.912 7.912 0 0 1-5.83 2.336c-6.403-.204-11.489-5.453-11.489-11.86 0-6.407 5.086-11.656 11.489-11.86a7.919 7.919 0 0 1 5.83 2.33h.108V13.912zm-186.23-.217c-1.611 0-3.401.652-4.82 3.972-.974 2.28-7.636 17.764-7.636 17.764h-.127s-6.662-15.493-7.638-17.772c-1.42-3.312-3.304-3.96-4.818-3.96C2.044 13.699 0 15.191 0 18.754v26.591h6.79V27.82h.134l6.324 14.751c1.095 2.555 2.317 2.98 3.515 2.98 1.2 0 2.423-.425 3.518-2.98l6.326-14.751h.136v17.525h6.786V18.781c0-3.563-1.866-5.088-4.245-5.088v.002zm218.47 29.593h.51v2.065h.663v-2.065h.508v-.595h-1.682l.001.595zM48.389 36.842l-5.3-13.86h-7.073l9.455 21.909a4.564 4.564 0 0 1-4.948 4.026h-.927v5.575H40.8c4.834 0 7.338-.89 8.844-4.667.37-.924 10.637-26.842 10.637-26.842h-7.125l-4.767 13.859zm51.268 8.511h6.326V23.007h-6.326v22.346zm22.614-23.027a7.358 7.358 0 0 0-5.778 2.59h-.068v-1.9h-6.327v22.332h6.327V34.474c0-4.34 2.298-6.21 4.91-6.21 1.812 0 4.57 1.178 4.57 5.569v11.504h6.332V33.36c0-7.511-5.06-11.034-9.966-11.034zm-19.451-9.823a3.793 3.793 0 1 0 3.696 3.79 3.745 3.745 0 0 0-3.696-3.79zm-14.4 20.846L75.588 16.037c-1.325-1.785-2.587-2.334-3.61-2.334a3.382 3.382 0 0 0-3.69 3.64v28h6.792v-19.44L87.909 43.22c1.325 1.785 2.587 2.336 3.61 2.336a3.38 3.38 0 0 0 3.69-3.642v-28h-6.792v19.437l.003-.002zm239.25-8.314h-.07v-2.023h-6.322v22.333h6.322V35.28c0-4.228 2.217-6.64 5.632-6.64h.216v-6.316a6.929 6.929 0 0 0-5.778 2.712v-.001zm-14.186 9.157a5.735 5.735 0 1 0-5.727 6 5.874 5.874 0 0 0 5.727-6zm5.888-.008c-.135 6.383-5.396 11.461-11.78 11.37-6.383-.09-11.498-5.314-11.453-11.698.045-6.385 5.234-11.536 11.618-11.536 6.483.07 11.683 5.38 11.615 11.864zm-28.021-17.328h-6.31v6.156h-4.23v5.267h4.23v17.066h6.31V28.28h4.277v-5.267h-4.277v-6.157zm59.725 14.911a5.684 5.684 0 0 0-5.564-3.958 5.487 5.487 0 0 0-5.386 3.958h10.95zm1.763 4.461h-12.87a5.75 5.75 0 0 0 5.451 4.332 6.122 6.122 0 0 0 5.191-2.51l5.172 1.866a11.508 11.508 0 0 1-10.309 6.127c-6.497 0-11.437-5.819-11.437-11.9 0-5.883 4.83-11.823 11.378-11.823 7.554 0 11.49 6.595 11.585 11.231 0 2.117-1.398 2.677-4.164 2.677h.003zm-72.541.262c-.228 5.584-4.903 9.947-10.49 9.788-5.194 0-9.126-3.269-11.12-5.843l5.796-4.137c1.576 1.636 3.56 2.864 5.488 2.864 1.693 0 3.299-1.095 3.299-2.672 0-2.225-3.06-3.082-6.392-4.374-5.65-2.19-7.397-5.556-7.397-9.525.2-5.507 4.827-9.81 10.334-9.61 4.066 0 7.592 2.483 9.83 5.305l-5.348 3.84a6.582 6.582 0 0 0-4.737-2.177c-2.314 0-3.26 1.43-3.26 2.588 0 2.417 3.233 3.141 6.408 4.366 6.418 2.474 7.592 6.143 7.592 9.587h-.003z" fill-rule="nonzero" mask="url(#b)" transform="translate(0 131)"></path>
            <path d="M223.548 33.593C212.279 12.483 192.063 0 168.744 0c-27.44 0-55.827 18.741-55.827 50.096 0 22.016 18.398 31.022 19.185 31.395a6.034 6.034 0 0 0 7.947-2.723l10.522-20.116 7.603 15.29a6.037 6.037 0 0 0 10.878 0l7.562-15.2 10.285 19.99a6.033 6.033 0 0 0 3.572 3.05 6.034 6.034 0 0 0 4.678-.433 6.34 6.34 0 0 0 2.545-8.467L181.92 42.22a6.155 6.155 0 0 0-5.448-3.34 6.08 6.08 0 0 0-5.389 3.417l-7.473 15.017-7.46-15.017a6.044 6.044 0 0 0-10.831-.112l-12.826 24.532a22.11 22.11 0 0 1-7.366-16.621c0-23.514 22.176-37.572 43.617-37.572 19.766 0 36.796 11.215 45.548 29.998a6.11 6.11 0 0 0 5.922 3.553c.303-.029.608-.037.912-.024.201.012.355.012.48.012 15.188 0 25.77 14.034 25.77 26.635 0 15.272-11.684 27.233-26.588 27.233a25.533 25.533 0 0 1-14.543-4.714 5.977 5.977 0 0 0-7.49.036 66.564 66.564 0 0 1-41.054 14.223c-24.58 0-42.694-14.034-49.516-22.33a6.007 6.007 0 0 0-4.142-2.203 6.005 6.005 0 0 0-4.462 1.451 6.375 6.375 0 0 0-.728 8.823C101.103 97.96 121.917 122 157.701 122a77.8 77.8 0 0 0 45.068-14.24 38.765 38.765 0 0 0 18.013 4.695c21.756 0 38.804-17.469 38.804-39.757 0-18.363-14.395-37.992-36.038-39.105z" fill-rule="nonzero"></path>
            </g>
        </svg>
